<svg width="26" height="26" viewBox="0 0 26 26" fill="none" xmlns="http://www.w3.org/2000/svg">
<path d="M23.1875 25.2292L15.0208 17.0625C14.2917 17.6458 13.4531 18.1076 12.5052 18.4479C11.5573 18.7882 10.5486 18.9583 9.47917 18.9583C6.82986 18.9583 4.58792 18.041 2.75333 16.2065C0.917778 14.3709 0 12.1285 0 9.47917C0 6.82986 0.917778 4.58743 2.75333 2.75187C4.58792 0.917292 6.82986 0 9.47917 0C12.1285 0 14.3709 0.917292 16.2065 2.75187C18.041 4.58743 18.9583 6.82986 18.9583 9.47917C18.9583 10.5486 18.7882 11.5573 18.4479 12.5052C18.1076 13.4531 17.6458 14.2917 17.0625 15.0208L25.2656 23.224C25.533 23.4913 25.6667 23.8194 25.6667 24.2083C25.6667 24.5972 25.5208 24.9375 25.2292 25.2292C24.9618 25.4965 24.6215 25.6302 24.2083 25.6302C23.7951 25.6302 23.4549 25.4965 23.1875 25.2292ZM9.47917 16.0417C11.3021 16.0417 12.8518 15.4039 14.1283 14.1283C15.4039 12.8518 16.0417 11.3021 16.0417 9.47917C16.0417 7.65625 15.4039 6.10653 14.1283 4.83C12.8518 3.55444 11.3021 2.91667 9.47917 2.91667C7.65625 2.91667 6.10653 3.55444 4.83 4.83C3.55444 6.10653 2.91667 7.65625 2.91667 9.47917C2.91667 11.3021 3.55444 12.8518 4.83 14.1283C6.10653 15.4039 7.65625 16.0417 9.47917 16.0417Z" fill="#686868"/>
</svg>
