<svg width="30" height="30" viewBox="0 0 30 30" fill="none" xmlns="http://www.w3.org/2000/svg">
<path d="M15 30C23.2843 30 30 23.2843 30 15C30 6.71573 23.2843 0 15 0C6.71573 0 0 6.71573 0 15C0 23.2843 6.71573 30 15 30Z" fill="#FFDD67"/>
<path d="M7.5 19.5C10.5376 19.5 13 17.0376 13 14C13 10.9624 10.5376 8.5 7.5 8.5C4.46243 8.5 2 10.9624 2 14C2 17.0376 4.46243 19.5 7.5 19.5Z" fill="white"/>
<path d="M22.5 19.5C25.5376 19.5 28 17.0376 28 14C28 10.9624 25.5376 8.5 22.5 8.5C19.4624 8.5 17 10.9624 17 14C17 17.0376 19.4624 19.5 22.5 19.5Z" fill="white"/>
<path d="M17 12.5C16.1 11.85 13.9 11.85 13 12.5C12.45 12 12.55 11.45 12 10.95C13.55 9.79998 16.2 9.59998 18 10.95C17.45 11.45 17.55 12 17 12.5Z" fill="#494949"/>
<path d="M22.5 7.5C18.9 7.5 16 10.4 16 14C16 17.6 18.9 20.5 22.5 20.5C26.1 20.5 29 17.6 29 14C29 10.4 26.1 7.5 22.5 7.5ZM22.5 19C19.75 19 17.5 16.75 17.5 14C17.5 11.25 19.75 9 22.5 9C25.25 9 27.5 11.25 27.5 14C27.5 16.75 25.25 19 22.5 19ZM7.5 7.5C3.9 7.5 1 10.4 1 14C1 17.6 3.9 20.5 7.5 20.5C11.1 20.5 14 17.6 14 14C14 10.4 11.1 7.5 7.5 7.5ZM7.5 19C4.75 19 2.5 16.75 2.5 14C2.5 11.25 4.75 9 7.5 9C10.25 9 12.5 11.25 12.5 14C12.5 16.75 10.25 19 7.5 19Z" fill="#494949"/>
<path d="M9 16.75C10.1046 16.75 11 15.6307 11 14.25C11 12.8693 10.1046 11.75 9 11.75C7.89543 11.75 7 12.8693 7 14.25C7 15.6307 7.89543 16.75 9 16.75Z" fill="#664E27"/>
<path d="M21 16.75C22.1046 16.75 23 15.6307 23 14.25C23 12.8693 22.1046 11.75 21 11.75C19.8954 11.75 19 12.8693 19 14.25C19 15.6307 19.8954 16.75 21 16.75Z" fill="#664E27"/>
<path d="M12.3499 24.6499C15.2499 25.3999 18.3499 24.8499 20.7999 23.1499C21.3999 22.6999 20.2499 21.1499 19.6499 21.5499C18.0499 22.6999 15.4499 23.4499 12.7999 22.7499C12.1499 22.5999 11.5999 24.4499 12.3499 24.6499Z" fill="#664E27"/>
<path d="M25.6001 6.85007C24.0001 5.50007 21.8501 4.90007 19.7501 5.30007C19.4501 5.35007 19.2001 4.30007 19.5501 4.20007C21.9501 3.75007 24.4501 4.45007 26.3001 6.00007C26.6001 6.25007 25.8001 7.05007 25.6001 6.85007ZM10.2501 5.20007C8.15009 4.85007 6.00009 5.40007 4.40009 6.75007C4.20009 6.95007 3.40009 6.15007 3.70009 5.90007C5.55009 4.30007 8.05009 3.65007 10.4501 4.10007C10.8001 4.20007 10.5501 5.25007 10.2501 5.20007Z" fill="#917524"/>
</svg>
