<svg width="30" height="30" viewBox="0 0 30 30" fill="none" xmlns="http://www.w3.org/2000/svg">
<g clip-path="url(#clip0_513_5698)">
<path d="M14.9185 13.3733C14.9185 13.3733 13.3972 13.6578 14.6469 11.1689C15.5524 9.35557 15.4619 7.25779 14.6469 6.15557C13.3429 4.36001 10.7711 4.94668 11.0427 5.97779C11.9483 9.49779 9.90171 10.5467 8.83315 12.7511C7.74647 15.0089 7.87325 18.1911 8.36226 21.0356C8.67015 22.8133 9.46704 25 12.3648 25H16.3855L14.9185 13.3733Z" fill="#FFDD67"/>
<path d="M12.8176 24.5022C9.91983 24.5022 9.26783 22.3156 8.95994 20.5378C8.47093 17.6934 8.38038 15.4356 9.34027 13.1245C10.3726 10.6356 11.4593 10.5645 11.4593 5.62225C11.4593 5.37336 11.6042 5.21336 11.731 5.10669C11.242 5.26669 10.9703 5.53336 10.9703 5.94225C10.9703 9.64002 9.88361 10.5467 8.81505 12.7689C7.74648 15.0089 7.87326 18.1911 8.36227 21.0356C8.67016 22.8134 9.46705 25 12.3649 25H16.3856V24.5022H12.7995H12.8176Z" fill="#EBA352"/>
<path d="M19.8991 16.271H14.9185C13.1798 16.271 13.1798 13.3555 14.9185 13.3555H19.8991C21.6378 13.3555 21.6378 16.271 19.8991 16.271Z" fill="#FFDD67"/>
<path d="M20.2794 15.7912H15.2988C14.1216 15.7912 13.7412 14.4756 14.1578 13.6045C13.2341 14.2978 13.4696 16.2712 14.9004 16.2712H19.881C20.4424 16.2712 20.8227 15.9689 21.022 15.5423C20.8227 15.6845 20.5692 15.7912 20.2794 15.7912Z" fill="#EBA352"/>
<path d="M20.4243 19.1866H14.4476C12.3648 19.1866 12.3648 16.271 14.4476 16.271H20.4243C22.5071 16.271 22.5071 19.1866 20.4243 19.1866Z" fill="#FFDD67"/>
<path d="M20.8952 18.7067H14.9185C13.5058 18.7067 13.053 17.3911 13.542 16.52C12.4192 17.2134 12.727 19.1867 14.4476 19.1867H20.4243C21.0944 19.1867 21.5472 18.8845 21.8008 18.4578C21.5653 18.6 21.2574 18.7067 20.8952 18.7067Z" fill="#EBA352"/>
<path d="M19.8628 22.1023H14.8098C13.053 22.1023 13.053 19.1868 14.8098 19.1868H19.8628C21.6196 19.1868 21.6196 22.1023 19.8628 22.1023Z" fill="#FFDD67"/>
<path d="M20.2613 21.6222H15.2083C14.013 21.6222 13.6326 20.3067 14.0492 19.4355C13.1074 20.1289 13.361 22.1022 14.8099 22.1022H19.8629C20.4425 22.1022 20.8228 21.8 21.022 21.3733C20.8228 21.5155 20.5692 21.6222 20.2613 21.6222Z" fill="#EBA352"/>
<path d="M19.3196 25H16.0595C14.176 25 14.176 22.0845 16.0595 22.0845H19.3196C21.2031 22.0845 21.2031 25 19.3196 25Z" fill="#FFDD67"/>
<path d="M19.7542 24.5199H16.4941C15.2263 24.5199 14.8098 23.2044 15.2626 22.3333C14.2483 23.0266 14.52 24.9999 16.0776 24.9999H19.3376C19.9534 24.9999 20.3518 24.6977 20.5692 24.271C20.3518 24.4133 20.0802 24.5199 19.7542 24.5199Z" fill="#EBA352"/>
</g>
<defs>
<clipPath id="clip0_513_5698">
<rect width="20" height="20" fill="white" transform="translate(5 5)"/>
</clipPath>
</defs>
</svg>
